<?xml version="1.0" encoding="utf-8"?>
<!-- Generator: Adobe Illustrator 16.0.0, SVG Export Plug-In . SVG Version: 6.00 Build 0)  -->
<!DOCTYPE svg PUBLIC "-//W3C//DTD SVG 1.1 Tiny//EN" "http://www.w3.org/Graphics/SVG/1.1/DTD/svg11-tiny.dtd">
<svg version="1.1" baseProfile="tiny" id="Layer_1" xmlns="http://www.w3.org/2000/svg" xmlns:xlink="http://www.w3.org/1999/xlink"
	 x="0px" y="0px" width="640px" height="480px" viewBox="0 0 640 480" xml:space="preserve">
<path fill="none" stroke="#000000" stroke-miterlimit="10" d="M8.75,8c0.378,1.837-0.854,4.041-0.064,5.774
	c0.902,1.983,4.398,3.181,6.061,4.051c6.663,3.487,15.165,5.9,15.509,14.418c0.252,6.242,1.911,9.958,7.04,14.06
	c5.332,4.263,11.487,5.199,11.71,12.822c0.109,3.715-0.23,7.824,1.77,11.161c2.723,4.542,7.869,7.592,10.961,11.991
	c2.815,4.003,2.813,9.13,5.618,13.082c3.361,4.737,9.538,5.126,13.079,9.671c4.008,5.145,2.709,10.664,4.645,16.589
	c0.863,2.64,2.414,4.844,4.898,6.137c2.729,1.419,5.854,0.628,8.429,2.094c7.057,4.016,6.348,12.703,11.811,17.417
	c2.311,1.994,3.956,1.325,7.022,1.478c3.484,0.174,4.92,1.631,6.998,4.558c3.155,4.443,4.625,12.03,10.468,13.387
	c3.893,0.904,6.664-1.141,10.196-1.017c4.523,0.159,8.061,8.627,11.091,11.648c2.149,2.143,3.89,3.638,5.321,6.306
	c0.73,1.361,1.193,3.357,2.189,4.373"/>
<path fill="none" stroke="#000000" stroke-miterlimit="10" d="M21.25,3.25c1.998,0.551,2.532,3.223,4.259,4.568
	c1.848,1.438,4.904,0.778,6.433,2.009c1.164,0.937,0.53,3.639,0.805,4.878c0.596,2.692,1.435,2.788,4.173,3.563
	c3.528,0.998,4.853,2.305,5.745,5.996c1.01,4.18,0.858,6.527,5.37,7.791c1.818,0.509,5.784,1.144,6.75,3.183
	c0.759,1.6-0.204,3.933,0.641,5.743c2.76,5.913,10.11,1.803,12.328,8.607c0.69,2.116,0.656,3.974,0.746,6.213
	c0.176,4.392,1.448,6.798,4.122,10.182c2.939,3.719,4.339,5.647,5.837,10.052c0.906,2.664,2.859,6.497,5.503,7.88
	c2.192,1.146,4.923,0.313,7.2,1.356c4.148,1.899,5.941,5.007,6.742,9.19c0.829,4.331,3.492,5.447,7.94,5.985
	c3.973,0.48,4.546,0.417,5.99,4.562c1.262,3.625,2.678,6.561,4.278,10.062c0.958,2.094,1.693,4.632,4.032,5.69
	c2.276,1.03,5.674,0.208,8.162,0.818c4.311,1.057,5.034,4.156,7.292,7.595c2.795,4.258,5.73,12.134,11.121,12.581
	c6.011,0.499,9.402,4.715,12.68,9.484c2.595,3.776,5.002,9.025,8.836,11.754c3.69,2.627,8.341,2.759,11.724,6.126
	c1.859,1.851,3.993,4.95,4.842,7.461c0.459,1.358,0.175,2.738,0.949,4.171"/>
<path fill="none" stroke="#000000" stroke-miterlimit="10" d="M7,27.5c5.923,1.146,6.538,8.829,8.107,13.404
	c1.896,5.532,5.61,5.068,10.134,7.063c11.111,4.901,5.034,23.923,12.296,32.107c1.562,1.76,3.729,2.611,5.163,4.481
	c1.451,1.892,2.3,4.494,3.371,6.604c1.146,2.259,1.256,4.809,2.391,6.942c1.853,3.48,6.21,2.767,8.821,5.043
	c3.93,3.427,2.419,9.667,5.425,13.599c2.254,2.947,7.42,5.677,10.72,7.43c8.485,4.508,9.462,15.589,13.028,23.671
	c2.3,5.212,6.675,5.359,10.427,9c3.104,3.011,4.127,7.106,6.101,10.764c1.117,2.071,3.087,5.741,4.944,7.121
	c1.698,1.261,2.241,0.803,4.222,1.247c4.146,0.928,8.652,3.752,11.629,6.832c1.836,1.898,3.012,4.057,5.469,5.296
	c2.068,1.043,4.609,1.346,6.75,2.146"/>
<path fill="none" stroke="#000000" stroke-miterlimit="10" d="M41.5,7.25c1.99,0.445,4.137-0.073,6,0.965
	c1.411,0.786,2.188,2.282,3.127,3.48c0.76,0.969,1.672,2.43,2.828,2.958c3.345,1.528,7.712-0.371,11.171,1.562
	c3.627,2.026,4.563,7.247,5.863,10.834c1.147,3.166,2.081,3.637,4.894,5.189c2.266,1.25,2.681,2.273,3.371,5.078
	c0.442,1.797,0.671,3.651,1.196,5.427c0.535,1.81,1.017,3.228,2.438,4.594c1.002,0.962,2.929,1.28,3.784,2.2
	c0.978,1.052,0.797,2.866,1.25,4.339c0.782,2.543,2.112,4.053,4.119,5.749c1.442,1.219,2.969,2.63,4.691,3.329
	c1.932,0.784,3.64,0.701,5.443,1.887c1.78,1.171,4.566,2.772,6.052,4.224c1.965,1.918,2.024,4.53,3.218,6.973
	c2.233,4.57,7.576,11.482,12.871,12.168c2.385,0.309,4.022,0.036,6.217,1.239c2.21,1.212,5.981,3.616,7.479,5.554
	c1.677,2.171,2.356,5.3,3.841,7.642c1.845,2.911,4.258,4.737,7.737,5.887c5.728,1.893,8.729,4.104,10.391,10.169
	c1.062,3.879,1.598,7.385,4.82,10.176c1.771,1.534,3.897,2.489,5.865,3.684c4.285,2.603,6.295,6.498,8.36,10.972
	c1.537,3.33,3.706,2.702,6.859,3.792c2.034,0.703,4.022,2.674,6.309,2.192c1.025-0.216,1.758-0.561,2.306-1.512"/>
<path fill="none" stroke="#000000" stroke-miterlimit="10" d="M6.5,39c-2.743,4.427,5.601,7.827,7.079,11.324
	c1.793,4.245-0.182,7.342-0.32,11.459c-0.166,4.949,4.694,6.969,8.072,9.751c3.567,2.938,6.963,7.107,8.882,11.355
	c1.747,3.868,0.88,7.182,1.244,11.201c0.408,4.497,4.657,5.979,7.389,9.195c3.601,4.238,5.766,9.306,7.869,14.388
	c2.63,6.358,5.597,10.425,10.632,15.142c1.844,1.727,3.173,3.964,5.105,5.577c1.283,1.07,3.012,1.578,4.187,2.825
	c2.074,2.2,2.738,5.544,4.101,8.266c2.998,5.991,5.177,13.229,10.308,17.712c3.293,2.878,7.428,4.584,11.022,7.005
	c3.674,2.474,5.262,6.669,8.452,9.668c3.295,3.1,7.432,4.948,7.479,9.881"/>
<path fill="none" stroke="#000000" stroke-miterlimit="10" d="M61.25,4c3.541,1.195,7.418,0.877,11.005,2.172
	c2.554,0.931,4.875,2.261,6.962,3.991c1.958,2.027,1.543,4.085,2.877,6.234c2.247,3.619,8.151,2.133,12.133,3.13
	c4.604,1.152,7.952,5.135,9.897,9.372c3.235,7.046,2.36,12.962,10.113,16.958c5.174,2.667,10.698,4.762,13.851,9.908
	c3.572,5.831,4.268,13.254,7.999,18.855c1.752,2.629,4.514,3.383,7.17,4.847c3.752,2.067,7.592,4.142,10.453,7.232
	c3.458,3.734,7.279,7.087,10.434,11.101c3.697,4.704,6.924,9.762,10.49,14.562c1.784,2.401,2.857,3.614,5.922,4.194
	c1.346,0.255,1.938,0.002,3.109,0.718c1.75,1.069,2.924,3.23,4.834,4.31c1.408,0.796,3.039,1.221,4.501,1.917"/>
<path fill="none" stroke="#000000" stroke-miterlimit="10" d="M3.5,52.75c1.958,0.1,2.627,4.467,3.03,5.872
	c1.302,4.546,0.206,8.871,1.026,13.368c0.747,4.1,3.333,5.851,6.116,8.622c2.976,2.964,3.924,5.83,4.847,9.679
	c2.361,9.844,9.827,17.751,14.474,26.467c1.58,2.964,2.642,5.846,4.682,8.598c2.233,3.012,3.769,3.944,4.305,7.508
	c0.626,4.16,0.388,8.835,2.921,12.471c2.441,3.503,7.186,4.341,9.945,7.325c3.556,3.845,6.386,12.681,7.808,17.251
	c0.076,2.324,1.013,4.188,2.812,5.593c3.045,2.175,8.754,1.434,12.323,2.283c2.857,0.68,2.508,1.306,4.575,3.062
	c2.706,2.3,6.518,3.257,9.38,5.454c1.841,1.413,3.498,3.105,5.462,4.346c0.572-0.525,1.003-1.159,1.293-1.899"/>
<path fill="none" stroke="#000000" stroke-miterlimit="10" d="M82,2.75c3.528,0.939,6.955,2.256,10.535,3.007
	c4.086,0.744,8.205,1.131,12.357,1.162c1.587-0.355,3.105-0.245,4.554,0.331c1.254,1.16,0.812,4.123,1.296,5.589
	c0.841,2.549,1.995,4.042,4.136,5.671c3.504,2.665,7.742,3.799,11.111,6.842c6.607,5.968,7.196,17.697,16.384,20.96
	c6.659,2.365,11.438,3.397,15.714,9.4c5.948,8.347,12.296,17.915,21.005,23.743c3.018,2.02,6.206,3.763,9.231,5.775
	c2.76,1.835,6.273,4.349,9.675,4.52"/>
<path fill="none" stroke="#000000" stroke-miterlimit="10" d="M4,81.25c0.79,0.812,1.793,1.335,2.737,2.073
	c5.645,4.41,8.592,11.4,10.494,18.109c1.038,3.662,1.503,6.311,3.519,9.566c1.775,2.868,2.532,4.973,3.114,8.27
	c1.382,7.818,2.583,17.821,8.108,23.855c4.736,5.172,8.121,9.453,11.745,15.503c2.614,4.364,3.998,9.101,6.424,13.56
	c2.278,4.185,6.284,5.319,10.276,7.51c4.781,2.624,9.64,5.38,14.264,8.072c1.677,0.976,6.463,1.927,6.318,4.232"/>
</svg>
