<?xml version="1.0" encoding="utf-8"?>
<!-- Generator: Adobe Illustrator 22.1.0, SVG Export Plug-In . SVG Version: 6.00 Build 0)  -->
<svg version="1.1" id="Layer_1" xmlns="http://www.w3.org/2000/svg" xmlns:xlink="http://www.w3.org/1999/xlink" x="0px" y="0px"
	 viewBox="0 0 640 640" style="enable-background:new 0 0 640 640;" xml:space="preserve">
<style type="text/css">
	.st0{fill:none;stroke:#000000;stroke-miterlimit:10;}
</style>
<path class="st0" d="M7.5,21.2c0-4.5,6.6-8.2,14.8-8.2"/>
<path class="st0" d="M38.2,31c0-4-6.4-7.2-14.4-7.2"/>
<path class="st0" d="M9.2,48.3c0-4,6.5-7.2,14.6-7.2"/>
<path class="st0" d="M37.1,46.6c0-6.8,6.7-12.2,15-12.2"/>
<path class="st0" d="M50.2,21.2c0-7.7-7-13.9-15.6-13.9"/>
<path class="st0" d="M13.6,25.3c0,6.8,6.6,12.2,14.8,12.2"/>
<path class="st0" d="M44.6,51.6c0,2.7,7,4.8,15.5,4.8"/>
<path class="st0" d="M60.1,44.7c0,3.8,5.3,7,11.8,7"/>
<path class="st0" d="M36,56.4c0,7.6,9.6,13.7,21.4,13.7"/>
<path class="st0" d="M28.4,49.5c0,6.9-6.6,12.5-14.8,12.5"/>
<path class="st0" d="M9.2,37.5c0-10.2,2.6-18.5,5.7-18.5"/>
<path class="st0" d="M44.6,21.2c0,3.9,8.4,7.1,18.7,7.1"/>
<path class="st0" d="M2,9.2C2,5.2,15.4,2,32,2"/>
<path class="st0" d="M60.1,9.9C60.1,21.6,68,31,77.7,31"/>
<path class="st0" d="M66.1,67.9c0-3.3,6.6-6,14.8-6"/>
<path class="st0" d="M32,73.7C32,85.5,47.9,95,67.5,95"/>
<path class="st0" d="M31,63.3c0,10.8-7.2,19.5-16.1,19.5"/>
<path class="st0" d="M50.2,79.2c0-2.1,11.3-3.8,25.4-3.8"/>
<path class="st0" d="M70.1,35.6c0,3,9.9,5.5,22.2,5.5"/>
<path class="st0" d="M102,27.4c0-8-10.9-14.4-24.3-14.4"/>
<path class="st0" d="M7.5,54c0,21.9,2.7,39.6,6.1,39.6"/>
<path class="st0" d="M22.9,93.6c0,4.6,7.7,8.4,17.1,8.4"/>
<path class="st0" d="M85.2,84.7c6-6.8,7-16.8,2.2-22.2"/>
</svg>
