<?xml version="1.0" encoding="utf-8"?>
<!-- Generator: Adobe Illustrator 22.1.0, SVG Export Plug-In . SVG Version: 6.00 Build 0)  -->
<svg version="1.1" id="Layer_1" xmlns="http://www.w3.org/2000/svg" xmlns:xlink="http://www.w3.org/1999/xlink" x="0px" y="0px"
	 viewBox="0 0 640 480" style="enable-background:new 0 0 640 480;" xml:space="preserve">
<style type="text/css">
	.st0{fill:none;stroke:#000000;stroke-miterlimit:10;}
</style>
<path class="st0" d="M8.8,8c0.4,1.8-0.9,4-0.1,5.8c0.9,2,4.4,3.2,6.1,4.1c6.7,3.5,15.2,5.9,15.5,14.4c0.3,6.2,1.9,10,7,14.1
	c5.3,4.3,11.5,5.2,11.7,12.8c0.1,3.7-0.2,7.8,1.8,11.2c2.7,4.5,7.9,7.6,11,12c2.8,4,2.8,9.1,5.6,13.1c3.4,4.7,9.5,5.1,13.1,9.7
	c4,5.1,2.7,10.7,4.6,16.6c0.9,2.6,2.4,4.8,4.9,6.1c2.7,1.4,5.9,0.6,8.4,2.1c7.1,4,6.3,12.7,11.8,17.4c2.3,2,4,1.3,7,1.5
	c3.5,0.2,4.9,1.6,7,4.6c3.2,4.4,4.6,12,10.5,13.4c3.9,0.9,6.7-1.1,10.2-1c4.5,0.2,8.1,8.6,11.1,11.6c2.1,2.1,3.9,3.6,5.3,6.3
	c0.7,1.4,1.2,3.4,2.2,4.4"/>
</svg>
